[Header]
FileType HTR
DataType HTRS
FileVersion 1
NumSegments 64
NumFrames 4
DataFrameRate 24
EulerRotationOrder ZYX
CalibrationUnits mm
RotationUnits Degrees
GlobalAxisofGravity Y
BoneLengthAxis Y
ScaleFactor 1.0
[SegmentNames&Hierarchy]
Hips	GLOBAL
Spine	Hips
Spine1	Spine
Spine2	Spine1
Neck	Spine2
Head	Neck
LeftEye	Head
RightEye	Head
LeftShoulder	Spine2
LeftArm	LeftShoulder
LeftForeArm	LeftArm
LeftHand	LeftForeArm
LeftHandThumb1	LeftHand
LeftHandThumb2	LeftHandThumb1
LeftHandThumb3	LeftHandThumb2
LeftHandThumb4	LeftHandThumb3
LeftHandIndex1	LeftHand
LeftHandIndex2	LeftHandIndex1
LeftHandIndex3	LeftHandIndex2
LeftHandIndex4	LeftHandIndex3
LeftHandMiddle1	LeftHand
LeftHandMiddle2	LeftHandMiddle1
LeftHandMiddle3	LeftHandMiddle2
LeftHandMiddle4	LeftHandMiddle3
LeftHandRing1	LeftHand
LeftHandRing2	LeftHandRing1
LeftHandRing3	LeftHandRing2
LeftHandRing4	LeftHandRing3
LeftHandPinky1	LeftHand
LeftHandPinky2	LeftHandPinky1
LeftHandPinky3	LeftHandPinky2
LeftHandPinky4	LeftHandPinky3
RightShoulder	Spine2
RightArm	RightShoulder
RightForeArm	RightArm
RightHand	RightForeArm
RightHandPinky1	RightHand
RightHandPinky2	RightHandPinky1
RightHandPinky3	RightHandPinky2
RightHandPinky4	RightHandPinky3
RightHandRing1	RightHand
RightHandRing2	RightHandRing1
RightHandRing3	RightHandRing2
RightHandRing4	RightHandRing3
RightHandMiddle1	RightHand
RightHandMiddle2	RightHandMiddle1
RightHandMiddle3	RightHandMiddle2
RightHandMiddle4	RightHandMiddle3
RightHandIndex1	RightHand
RightHandIndex2	RightHandIndex1
RightHandIndex3	RightHandIndex2
RightHandIndex4	RightHandIndex3
RightHandThumb1	RightHand
RightHandThumb2	RightHandThumb1
RightHandThumb3	RightHandThumb2
RightHandThumb4	RightHandThumb3
LeftUpLeg	Hips
LeftLeg	LeftUpLeg
LeftFoot	LeftLeg
LeftToeBase	LeftFoot
RightUpLeg	Hips
RightLeg	RightUpLeg
RightFoot	RightLeg
RightToeBase	RightFoot
[BasePosition]
Hips	0	0	0	0	0	0	1
Spine	0	0	0	0	0	0	1
Spine1	0	0	0	0	0	0	1
Spine2	0	0	0	0	0	0	1
Neck	0	0	0	0	0	0	1
Head	0	0	0	0	0	0	1
LeftEye	0	0	0	0	0	0	1
RightEye	0	0	0	0	0	0	1
LeftShoulder	0	0	0	0	0	0	1
LeftArm	0	0	0	0	0	0	1
LeftForeArm	0	0	0	0	0	0	1
LeftHand	0	0	0	0	0	0	1
LeftHandThumb1	0	0	0	0	0	0	1
LeftHandThumb2	0	0	0	0	0	0	1
LeftHandThumb3	0	0	0	0	0	0	1
LeftHandThumb4	0	0	0	0	0	0	1
LeftHandIndex1	0	0	0	0	0	0	1
LeftHandIndex2	0	0	0	0	0	0	1
LeftHandIndex3	0	0	0	0	0	0	1
LeftHandIndex4	0	0	0	0	0	0	1
LeftHandMiddle1	0	0	0	0	0	0	1
LeftHandMiddle2	0	0	0	0	0	0	1
LeftHandMiddle3	0	0	0	0	0	0	1
LeftHandMiddle4	0	0	0	0	0	0	1
LeftHandRing1	0	0	0	0	0	0	1
LeftHandRing2	0	0	0	0	0	0	1
LeftHandRing3	0	0	0	0	0	0	1
LeftHandRing4	0	0	0	0	0	0	1
LeftHandPinky1	0	0	0	0	0	0	1
LeftHandPinky2	0	0	0	0	0	0	1
LeftHandPinky3	0	0	0	0	0	0	1
LeftHandPinky4	0	0	0	0	0	0	1
RightShoulder	0	0	0	0	0	0	1
RightArm	0	0	0	0	0	0	1
RightForeArm	0	0	0	0	0	0	1
RightHand	0	0	0	0	0	0	1
RightHandPinky1	0	0	0	0	0	0	1
RightHandPinky2	0	0	0	0	0	0	1
RightHandPinky3	0	0	0	0	0	0	1
RightHandPinky4	0	0	0	0	0	0	1
RightHandRing1	0	0	0	0	0	0	1
RightHandRing2	0	0	0	0	0	0	1
RightHandRing3	0	0	0	0	0	0	1
RightHandRing4	0	0	0	0	0	0	1
RightHandMiddle1	0	0	0	0	0	0	1
RightHandMiddle2	0	0	0	0	0	0	1
RightHandMiddle3	0	0	0	0	0	0	1
RightHandMiddle4	0	0	0	0	0	0	1
RightHandIndex1	0	0	0	0	0	0	1
RightHandIndex2	0	0	0	0	0	0	1
RightHandIndex3	0	0	0	0	0	0	1
RightHandIndex4	0	0	0	0	0	0	1
RightHandThumb1	0	0	0	0	0	0	1
RightHandThumb2	0	0	0	0	0	0	1
RightHandThumb3	0	0	0	0	0	0	1
RightHandThumb4	0	0	0	0	0	0	1
LeftUpLeg	0	0	0	0	0	0	1
LeftLeg	0	0	0	0	0	0	1
LeftFoot	0	0	0	0	0	0	1
LeftToeBase	0	0	0	0	0	0	1
RightUpLeg	0	0	0	0	0	0	1
RightLeg	0	0	0	0	0	0	1
RightFoot	0	0	0	0	0	0	1
RightToeBase	0	0	0	0	0	0	1
[Hips]
108	4.533789635	998.4517822	61.73604965	14.28419304	-72.19184875	-24.46673393	1.0
109	-2.045847654	986.1937256	34.37603378	24.49689484	-74.3219223	-33.63976288	1.0
110	-4.999446392	961.9906616	5.358203888	35.27170563	-75.40982819	-43.49142456	1.0
111	-1.013318777	937.0995483	-19.09669304	42.66323471	-75.08798218	-52.70889282	1.0
[Spine]
108	0	101.8159943	1.315000057	3.481589317	-8.062286377	-10.07283306	1.0
109	0	101.8159943	1.315000057	1.352126598	-8.989089966	-10.30032158	1.0
110	0	101.8159943	1.315000057	0.7816642523	-9.342223167	-9.091953278	1.0
111	0	101.8159943	1.315000057	5.971508026	-9.027654648	-6.936741352	1.0
[Spine1]
108	0	100.8349991	-10.00800037	1.415253639	-1.306582212	6.142428398	1.0
109	0	100.8349991	-10.00800037	1.780523419	-1.403427482	7.851798058	1.0
110	0	100.8349991	-10.00800037	1.788206458	-1.420885682	8.490942955	1.0
111	0	100.8349991	-10.00800037	1.111667752	-1.4927001	8.54196167	1.0
[Spine2]
108	0	91	-13.73399925	1.538722754	-1.268947601	6.119823456	1.0
109	0	91	-13.73399925	1.939249277	-1.393486857	7.814293861	1.0
110	0	91	-13.73399925	1.956259251	-1.426752925	8.450808525	1.0
111	0	91	-13.73399925	1.291584969	-1.433043003	8.52532196	1.0
[Neck]
108	0	166.7169952	-25.16200066	0.1473855525	-6.995233059	-8.458960533	1.0
109	0	166.7169952	-25.16200066	0.5363442302	-6.165285587	-9.506677628	1.0
110	0	166.7169952	-25.16200066	0.03205088899	-5.256685734	-10.06583881	1.0
111	0	166.7169952	-25.16200066	-1.892128944	-4.224700928	-9.953232765	1.0
[Head]
108	0	96.17900085	16.84999847	-15.38178539	-43.96493912	7.990660667	1.0
109	0	96.17900085	16.84999847	-12.98021603	-41.53193283	5.192363262	1.0
110	0	96.17900085	16.84999847	-12.22140217	-37.52225876	3.754606247	1.0
111	0	96.17900085	16.84999847	-12.0780859	-31.29377747	1.784604907	1.0
[LeftEye]
108	30.6760006	64.09500122	92.83599854	0	0	0	1.0
109	30.6760006	64.09500122	92.83599854	0	0	0	1.0
110	30.6760006	64.09500122	92.83599854	0	0	0	1.0
111	30.6760006	64.09500122	92.83599854	0	0	0	1.0
[RightEye]
108	-30.6760006	64.09500122	92.83499908	0	0	0	1.0
109	-30.6760006	64.09500122	92.83499908	0	0	0	1.0
110	-30.6760006	64.09500122	92.83499908	0	0	0	1.0
111	-30.6760006	64.09500122	92.83499908	0	0	0	1.0
[LeftShoulder]
108	45.70400238	109.4599991	-26.28000069	0.8197631836	-0.8794988394	-11.52915955	1.0
109	45.70400238	109.4599991	-26.28000069	0.706345737	-1.313634157	-7.027593136	1.0
110	45.70400238	109.4599991	-26.28000069	0.4513425827	-0.9729286432	-1.856908679	1.0
111	45.70400238	109.4599991	-26.28000069	0.1429684609	1.161046863	2.678328514	1.0
[LeftArm]
108	105.923996	-5.24600029	-22.32099915	-18.43016815	3.031915426	14.71599007	1.0
109	105.923996	-5.24600029	-22.32099915	-19.79096413	8.075965881	20.70373535	1.0
110	105.923996	-5.24600029	-22.32099915	-25.3435421	12.20447254	22.97390366	1.0
111	105.923996	-5.24600029	-22.32099915	-36.13612747	15.50193787	20.07954025	1.0
[LeftForeArm]
108	278.414978	-0.0009999999311	0	5.524652806e-06	-45.27728653	-0.0001950256847	1.0
109	278.414978	-0.0009999999311	0	6.717776159e-06	-48.18557358	-0.0002045371657	1.0
110	278.414978	-0.0009999999311	0	1.017453087e-05	-51.5635643	-0.0001978475339	1.0
111	278.414978	-0.0009999999311	0	2.036714795e-05	-57.9521637	-0.0002243853814	1.0
[LeftHand]
108	283.2879944	0	0	14.60815048	10.66773129	34.49045563	1.0
109	283.2879944	0	0	15.68597794	8.328597069	36.99320984	1.0
110	283.2879944	0	0	17.95942497	4.895577431	40.14208984	1.0
111	283.2879944	0	0	18.78243637	1.839509726	42.73504257	1.0
[LeftHandThumb1]
108	24.6609993	-15.75	26.8239994	-7.184696674	-0.3572546542	11.52183723	1.0
109	24.6609993	-15.75	26.8239994	-7.185211658	-0.250623107	11.42084694	1.0
110	24.6609993	-15.75	26.8239994	-7.547370434	-0.141077891	12.5988369	1.0
111	24.6609993	-15.75	26.8239994	-7.787547588	0.2585617304	14.27147961	1.0
[LeftHandThumb2]
108	32.29800034	-18.64699936	18.64699936	1.262385845	-0.1466716081	-1.051925302	1.0
109	32.29800034	-18.64699936	18.64699936	1.298792601	-0.1983053833	-1.0596174	1.0
110	32.29800034	-18.64699936	18.64699936	1.278086305	-0.2147292495	-1.050330997	1.0
111	32.29800034	-18.64699936	18.64699936	1.242552876	-0.2050960958	-1.035775185	1.0
[LeftHandThumb3]
108	26.52600098	-15.31499958	15.31499958	-3.796956539	-3.590180635	3.582854748	1.0
109	26.52600098	-15.31499958	15.31499958	-3.964801788	-3.943014145	3.686333656	1.0
110	26.52600098	-15.31499958	15.31499958	-4.25720644	-4.326449871	3.769331932	1.0
111	26.52600098	-15.31499958	15.31499958	-4.560501099	-4.679189205	3.835532904	1.0
[LeftHandThumb4]
108	19.54599953	-11.28499985	11.28499985	0	0	0	1.0
109	19.54599953	-11.28499985	11.28499985	0	0	0	1.0
110	19.54599953	-11.28499985	11.28499985	0	0	0	1.0
111	19.54599953	-11.28499985	11.28499985	0	0	0	1.0
[LeftHandIndex1]
108	91.09299469	-5.170999527	22.60099792	-0.9689385891	-8.921125412	31.18696213	1.0
109	91.09299469	-5.170999527	22.60099792	-0.9558299184	-8.818756104	30.96379662	1.0
110	91.09299469	-5.170999527	22.60099792	-0.9624880552	-8.701094627	31.05222702	1.0
111	91.09299469	-5.170999527	22.60099792	-1.001327872	-8.566570282	31.64374733	1.0
[LeftHandIndex2]
108	36.76399994	0	0	-1.020770469e-06	7.740436558e-06	-1.652358878e-05	1.0
109	36.76399994	0	0	1.668187451e-06	2.107562295e-06	-5.955996312e-05	1.0
110	36.76399994	0	0	-8.282489944e-06	-2.471131666e-06	-1.847718704e-05	1.0
111	36.76399994	0	0	2.28953553e-07	9.713521649e-06	-6.543832114e-06	1.0
[LeftHandIndex3]
108	28.83100128	0	0	-0.04096642137	0.7500990629	-6.252096653	1.0
109	28.83100128	0	0	-0.03689879924	0.7120395303	-5.933532715	1.0
110	28.83100128	0	0	-0.03175876662	0.6606337428	-5.50374794	1.0
111	28.83100128	0	0	-0.02673007548	0.6063219309	-5.050046444	1.0
[LeftHandIndex4]
108	23.92700005	0	0	0	0	0	1.0
109	23.92700005	0	0	0	0	0	1.0
110	23.92700005	0	0	0	0	0	1.0
111	23.92700005	0	0	0	0	0	1.0
[LeftHandMiddle1]
108	95.33399963	0	0	-0.4824998379	-1.003573418	21.64611816	1.0
109	95.33399963	0	0	-0.5660064816	-1.854075193	23.4230938	1.0
110	95.33399963	0	0	-0.6767456532	-2.612790346	25.62788391	1.0
111	95.33399963	0	0	-0.8674721718	-3.059966087	29.08093834	1.0
[LeftHandMiddle2]
108	36.98199844	0	0	6.921286058e-06	-7.19960517e-05	6.360917178e-05	1.0
109	36.98199844	0	0	-7.926136277e-06	-3.171168646e-05	2.410843626e-05	1.0
110	36.98199844	0	0	-1.259114924e-05	-6.523430784e-05	2.972179027e-05	1.0
111	36.98199844	0	0	-8.2223238e-07	-7.323652972e-05	-4.609836833e-05	1.0
[LeftHandMiddle3]
108	29.50900078	0	0	-0.03588392586	0.702252388	-5.851620674	1.0
109	29.50900078	0	0	-0.02827673592	0.6235939264	-5.194470406	1.0
110	29.50900078	0	0	-0.02127917111	0.5409371257	-4.504137039	1.0
111	29.50900078	0	0	-0.01715276763	0.4858303964	-4.044414997	1.0
[LeftHandMiddle4]
108	28.3390007	0	0	0	0	0	1.0
109	28.3390007	0	0	0	0	0	1.0
110	28.3390007	0	0	0	0	0	1.0
111	28.3390007	0	0	0	0	0	1.0
[LeftHandRing1]
108	91.04499817	-0.4390000105	-18.65100098	-0.2044142783	6.011154652	16.09142876	1.0
109	91.04499817	-0.4390000105	-18.65100098	-0.38892892	3.493194103	20.23245811	1.0
110	91.04499817	-0.4390000105	-18.65100098	-0.6288055778	1.274515271	25.03862762	1.0
111	91.04499817	-0.4390000105	-18.65100098	-0.8834975958	0.3538988233	29.56689644	1.0
[LeftHandRing2]
108	31.54000092	0	0	-2.697260697e-06	-7.488150004e-06	-6.778953684e-05	1.0
109	31.54000092	0	0	5.040724318e-06	-6.065173238e-06	4.982000246e-05	1.0
110	31.54000092	0	0	-3.484291483e-06	-4.549628557e-06	6.701202074e-05	1.0
111	31.54000092	0	0	6.886688766e-07	-1.172588964e-05	5.934048022e-05	1.0
[LeftHandRing3]
108	29.37700081	0	0	-0.0439427197	0.7768620849	-6.475991249	1.0
109	29.37700081	0	0	-0.03417733312	0.6852403283	-5.709502697	1.0
110	29.37700081	0	0	-0.02646752819	0.6031540632	-5.023784161	1.0
111	29.37700081	0	0	-0.02382399328	0.572501421	-4.767737389	1.0
[LeftHandRing4]
108	26.47500038	0	0	0	0	0	1.0
109	26.47500038	0	0	0	0	0	1.0
110	26.47500038	0	0	0	0	0	1.0
111	26.47500038	0	0	0	0	0	1.0
[LeftHandPinky1]
108	80.77799988	-4.887000084	-38.06099701	0.2563255727	18.9047966	14.13021564	1.0
109	80.77799988	-4.887000084	-38.06099701	-0.1800350845	14.38305283	21.48838234	1.0
110	80.77799988	-4.887000084	-38.06099701	-0.7299210429	10.41089439	29.89813423	1.0
111	80.77799988	-4.887000084	-38.06099701	-1.019739032	9.132426262	33.93015289	1.0
[LeftHandPinky2]
108	36	0	0	0.02982307225	-4.034366608	-0.6763476729	1.0
109	36	0	0	0.02452937886	-4.043426037	-0.6013268232	1.0
110	36	0	0	0.02626142092	-4.040447712	-0.6258617043	1.0
111	36	0	0	0.02660362981	-4.039906025	-0.6305717826	1.0
[LeftHandPinky3]
108	21.14200211	0	0	-0.03291577846	0.6726313233	-5.604003906	1.0
109	21.14200211	0	0	-0.02321350574	0.5651810169	-4.706497669	1.0
110	21.14200211	0	0	-0.01679087989	0.4805188775	-4.000210762	1.0
111	21.14200211	0	0	-0.01582412422	0.4665443301	-3.883590698	1.0
[LeftHandPinky4]
108	19.75699997	0	0	0	0	0	1.0
109	19.75699997	0	0	0	0	0	1.0
110	19.75699997	0	0	0	0	0	1.0
111	19.75699997	0	0	0	0	0	1.0
[RightShoulder]
108	-45.70000076	109.4620056	-26.28000069	0.1451470554	-2.943289042	19.34760475	1.0
109	-45.70000076	109.4620056	-26.28000069	0.1112498641	-3.120106459	22.6519413	1.0
110	-45.70000076	109.4620056	-26.28000069	0.1933410019	-2.879599333	24.72566032	1.0
111	-45.70000076	109.4620056	-26.28000069	0.292363435	-2.575772285	25.27809143	1.0
[RightArm]
108	-105.9280014	-5.248000145	-22.32099915	-44.07749557	6.760278225	25.08512115	1.0
109	-105.9280014	-5.248000145	-22.32099915	-34.2773819	-2.323756695	30.11110687	1.0
110	-105.9280014	-5.248000145	-22.32099915	-26.7618618	-12.30525303	36.48791885	1.0
111	-105.9280014	-5.248000145	-22.32099915	-23.11662292	-18.67172432	43.27871704	1.0
[RightForeArm]
108	-278.414978	0	0	-4.823036215e-05	75.96916962	-2.009366108e-05	1.0
109	-278.414978	0	0	-1.077285197e-05	71.19538879	-3.349957842e-05	1.0
110	-278.414978	0	0	1.08719878e-05	68.43221283	1.482444713e-05	1.0
111	-278.414978	0	0	-5.261797924e-06	65.42869568	9.751976222e-07	1.0
[RightHand]
108	-283.2879944	0	0.0009999999311	7.448505402	13.76976776	-27.63748741	1.0
109	-283.2879944	0	0.0009999999311	6.846478462	13.34044552	-27.664505	1.0
110	-283.2879944	0	0.0009999999311	5.422552109	11.16766167	-27.07762337	1.0
111	-283.2879944	0	0.0009999999311	4.320950031	8.215517998	-25.37272453	1.0
[RightHandPinky1]
108	-80.76699829	-4.885000229	-38.06000137	-0.09391459078	-14.54058075	-19.11507797	1.0
109	-80.76699829	-4.885000229	-38.06000137	-0.2455238998	-14.01011467	-22.37600327	1.0
110	-80.76699829	-4.885000229	-38.06000137	-0.5102237463	-13.31243229	-27.26307297	1.0
111	-80.76699829	-4.885000229	-38.06000137	-0.6715248823	-13.08120632	-29.95884895	1.0
[RightHandPinky2]
108	-36	0	0.0009999999311	-0.2295169234	-1.771698475	14.77499199	1.0
109	-36	0	0.0009999999311	-0.1745068431	-1.548055649	12.87605095	1.0
110	-36	0	0.0009999999311	-0.07915735245	-1.04633081	8.666140556	1.0
111	-36	0	0.0009999999311	-0.02375272848	-0.5743178129	4.74971199	1.0
[RightHandPinky3]
108	-21.14200211	0	0	-0.01089673117	-0.3890604675	3.206738472	1.0
109	-21.14200211	0	0	-0.003372078063	-0.2165982127	1.784538031	1.0
110	-21.14200211	0	0	-0.0003642461961	0.07173229754	-0.5908892751	1.0
111	-21.14200211	0	0	-0.01103763562	0.3916325569	-3.227892399	1.0
[RightHandPinky4]
108	-19.75699997	0	0	0	0	0	1.0
109	-19.75699997	0	0	0	0	0	1.0
110	-19.75699997	0	0	0	0	0	1.0
111	-19.75699997	0	0	0	0	0	1.0
[RightHandRing1]
108	-91.03599548	-0.4390000105	-18.65100098	-0.4018658102	-5.826148033	-21.19570351	1.0
109	-91.03599548	-0.4390000105	-18.65100098	-0.5066257119	-5.339220524	-23.36931038	1.0
110	-91.03599548	-0.4390000105	-18.65100098	-0.6656097174	-4.694896221	-26.36590958	1.0
111	-91.03599548	-0.4390000105	-18.65100098	-0.7664010525	-4.183721066	-28.0799942	1.0
[RightHandRing2]
108	-31.54000092	0	0	-3.081924206e-06	-2.177006991e-06	3.302648838e-05	1.0
109	-31.54000092	0	0	-1.396853008e-06	-3.91698677e-06	1.233007788e-05	1.0
110	-31.54000092	0	0	-3.453961426e-06	1.061657713e-06	1.972738391e-05	1.0
111	-31.54000092	0	0	8.249326129e-06	4.379453742e-07	1.705745672e-05	1.0
[RightHandRing3]
108	-29.37700081	0	0	-2.206228733	-0.1629348844	1.342193604	1.0
109	-29.37700081	0	0	-2.064739466	-0.03776443005	0.3103004098	1.0
110	-29.37700081	0	0	-1.787445903	0.2070014328	-1.707004666	1.0
111	-29.37700081	0	0	-1.451391459	0.4842047095	-3.993622303	1.0
[RightHandRing4]
108	-26.47500038	0	0	0	0	0	1.0
109	-26.47500038	0	0	0	0	0	1.0
110	-26.47500038	0	0	0	0	0	1.0
111	-26.47500038	0	0	0	0	0	1.0
[RightHandMiddle1]
108	-95.32500458	0	0	-0.799800992	1.551736712	-27.80766487	1.0
109	-95.32500458	0	0	-0.9064150453	2.12940073	-29.62174225	1.0
110	-95.32500458	0	0	-1.034610868	2.892550945	-31.68235588	1.0
111	-95.32500458	0	0	-1.119288921	3.81734705	-32.97822571	1.0
[RightHandMiddle2]
108	-36.98199844	0	0	9.19342483e-07	-1.761120416e-06	1.794669333e-05	1.0
109	-36.98199844	0	0	-2.898893626e-06	-4.511539828e-06	1.230252747e-05	1.0
110	-36.98199844	0	0	1.352438403e-06	-2.407260354e-06	3.009210559e-05	1.0
111	-36.98199844	0	0	-1.987846779e-15	-3.180554719e-15	0	1.0
[RightHandMiddle3]
108	-29.50900078	0	0	-1.175214648	0.0685288161	-0.5811511278	1.0
109	-29.50900078	0	0	-0.9791552424	0.1386835724	-1.159709215	1.0
110	-29.50900078	0	0	-0.6567524076	0.3122428358	-2.590984106	1.0
111	-29.50900078	0	0	-0.3115078509	0.5313096642	-4.398840904	1.0
[RightHandMiddle4]
108	-28.3390007	0	0.0009999999311	0	0	0	1.0
109	-28.3390007	0	0.0009999999311	0	0	0	1.0
110	-28.3390007	0	0.0009999999311	0	0	0	1.0
111	-28.3390007	0	0.0009999999311	0	0	0	1.0
[RightHandIndex1]
108	-91.08300018	-5.167999744	22.60099792	-1.149684072	8.312595367	-33.69730759	1.0
109	-91.08300018	-5.167999744	22.60099792	-1.258600116	9.090881348	-35.35224152	1.0
110	-91.08300018	-5.167999744	22.60099792	-1.34263587	10.12366486	-36.64953232	1.0
111	-91.08300018	-5.167999744	22.60099792	-1.40034771	11.65406227	-37.65354156	1.0
[RightHandIndex2]
108	-36.76399994	0	0	8.860062195e-08	-2.286268e-06	1.857168536e-05	1.0
109	-36.76399994	0	0	3.068379101e-06	-0.001514778822	0.01241930015	1.0
110	-36.76399994	0	0	-0.0001410670957	-0.04395451769	0.3621180654	1.0
111	-36.76399994	0	0	-0.0001353126281	-0.04355202243	0.3588995039	1.0
[RightHandIndex3]
108	-28.83100128	0	0	-0.0002784982789	0.06282318383	-0.5174866319	1.0
109	-28.83100128	0	0	-0.0008261477342	0.1073116511	-0.8839889765	1.0
110	-28.83100128	0	0	-0.004852667451	0.259917587	-2.141556263	1.0
111	-28.83100128	0	0	-0.01611550339	0.473146379	-3.900750637	1.0
[RightHandIndex4]
108	-23.92700005	0	0	0	0	0	1.0
109	-23.92700005	0	0	0	0	0	1.0
110	-23.92700005	0	0	0	0	0	1.0
111	-23.92700005	0	0	0	0	0	1.0
[RightHandThumb1]
108	-24.64799881	-15.72700024	26.82600021	-2.434172153	-11.52461529	-20.10985565	1.0
109	-24.64799881	-15.72700024	26.82600021	-3.585965157	-10.84467316	-19.81799507	1.0
110	-24.64799881	-15.72700024	26.82600021	-4.119614601	-10.72687912	-19.33901787	1.0
111	-24.64799881	-15.72700024	26.82600021	-3.737505674	-10.78056145	-18.33673096	1.0
[RightHandThumb2]
108	-32.29800034	-18.64699936	18.64699936	2.047860861	0.3269314468	1.699156523	1.0
109	-32.29800034	-18.64699936	18.64699936	2.047457457	0.3393535316	1.656108499	1.0
110	-32.29800034	-18.64699936	18.64699936	2.062211037	0.3516550958	1.632929921	1.0
111	-32.29800034	-18.64699936	18.64699936	2.055824995	0.3355662823	1.679748058	1.0
[RightHandThumb3]
108	-26.52600098	-15.31399918	15.31399918	-4.650588512	5.308211803	-3.231875658	1.0
109	-26.52600098	-15.31399918	15.31399918	-4.594546795	5.293802261	-3.182482243	1.0
110	-26.52600098	-15.31399918	15.31399918	-4.609778404	5.36626482	-3.178757906	1.0
111	-26.52600098	-15.31399918	15.31399918	-4.632891178	5.341796875	-3.234646082	1.0
[RightHandThumb4]
108	-19.54599953	-11.28499985	11.28499985	0	0	0	1.0
109	-19.54599953	-11.28499985	11.28499985	0	0	0	1.0
110	-19.54599953	-11.28499985	11.28499985	0	0	0	1.0
111	-19.54599953	-11.28499985	11.28499985	0	0	0	1.0
[LeftUpLeg]
108	82.07800293	-67.51699829	-15.99599934	-2.013158798	20.90576553	13.30259514	1.0
109	82.07800293	-67.51699829	-15.99599934	-3.769842148	17.55707359	17.08846664	1.0
110	82.07800293	-67.51699829	-15.99599934	-6.353003502	12.19478607	20.97729874	1.0
111	82.07800293	-67.51699829	-15.99599934	-7.518951893	8.579922676	23.50082779	1.0
[LeftLeg]
108	0	-443.7049866	2.845999956	34.57517624	8.111568451	-6.171047688	1.0
109	0	-443.7049866	2.845999956	39.8771286	8.826610565	-5.071968555	1.0
110	0	-443.7049866	2.845999956	46.39812851	8.001068115	-5.584045887	1.0
111	0	-443.7049866	2.845999956	53.17140579	0.4940930605	-7.997458458	1.0
[LeftFoot]
108	0	-444.2789917	-29.8219986	-23.80251694	27.43776894	-6.449320793	1.0
109	0	-444.2789917	-29.8219986	-24.7026825	15.64517975	-6.102475166	1.0
110	0	-444.2789917	-29.8219986	-28.59032822	5.614640713	-5.151679993	1.0
111	0	-444.2789917	-29.8219986	-33.09527588	2.600117207	-6.285307407	1.0
[LeftToeBase]
108	0	-87.28699493	107.1060028	-3.723643064	1.659004965e-06	9.638371239e-07	1.0
109	0	-87.28699493	107.1060028	-4.240962029	1.986249117e-05	-1.352795834e-06	1.0
110	0	-87.28699493	107.1060028	-3.991388083	8.05967133e-08	2.293097396e-06	1.0
111	0	-87.28699493	107.1060028	-4.016844273	-4.287975389e-05	3.689168807e-06	1.0
[RightUpLeg]
108	-82.07800293	-67.51699829	-15.99599934	-2.841522455	1.674933076	-11.06028175	1.0
109	-82.07800293	-67.51699829	-15.99599934	1.381237984	2.350458145	-8.644584656	1.0
110	-82.07800293	-67.51699829	-15.99599934	0.9351251125	4.901432991	-6.039081573	1.0
111	-82.07800293	-67.51699829	-15.99599934	-3.366894007	6.460607529	-3.407692909	1.0
[RightLeg]
108	0	-443.7049866	2.861999989	31.33133316	-4.700726032	-6.093663692	1.0
109	0	-443.7049866	2.861999989	23.19805717	-1.257383108	-5.05105114	1.0
110	0	-443.7049866	2.861999989	23.60774422	-6.341119766	-5.284608364	1.0
111	0	-443.7049866	2.861999989	35.08181763	-6.346341133	-5.109892368	1.0
[RightFoot]
108	0	-444.2770081	-29.83799934	2.393382072	-0.1937737018	17.81647682	1.0
109	0	-444.2770081	-29.83799934	1.194466352	-0.7859190702	26.25226593	1.0
110	0	-444.2770081	-29.83799934	-12.82239151	4.919950962	24.43910599	1.0
111	0	-444.2770081	-29.83799934	-22.1814518	7.274708271	19.33823204	1.0
[RightToeBase]
108	0	-87.28699493	107.1060028	-0.1009580866	-0.1108840033	3.400737047	1.0
109	0	-87.28699493	107.1060028	-10.34850121	-0.3564439118	-2.768307924	1.0
110	0	-87.28699493	107.1060028	-3.270843744	-1.733338286e-05	4.087202967e-07	1.0
111	0	-87.28699493	107.1060028	5.342897415	0.06549707055	-0.6536836028	1.0
[EndOfFile]
